<svg xmlns="http://www.w3.org/2000/svg" xmlns:xlink="http://www.w3.org/1999/xlink">

  <symbol id="gmail" fill-rule="evenodd" clip-rule="evenodd" stroke-linejoin="round" stroke-miterlimit="1.414">
    <path fill="#4caf50" d="M45,16.2l-5,2.75l-5,4.75L35,40h7c1.657,0,3-1.343,3-3V16.2z"/>
    <path fill="#1e88e5" d="M3,16.2l3.614,1.71L13,23.7V40H6c-1.657,0-3-1.343-3-3V16.2z"/>
    <polygon fill="#e53935" points="35,11.2 24,19.45 13,11.2 12,17 13,23.7 24,31.95 35,23.7 36,17"/>
    <path fill="#c62828" d="M3,12.298V16.2l10,7.5V11.2L9.876,8.859C9.132,8.301,8.228,8,7.298,8h0C4.924,8,3,9.924,3,12.298z"/>
    <path fill="#fbc02d" d="M45,12.298V16.2l-10,7.5V11.2l3.124-2.341C38.868,8.301,39.772,8,40.702,8h0 C43.076,8,45,9.924,45,12.298z"/>
  </symbol>

  <symbol id="medium" fill-rule="evenodd" clip-rule="evenodd" stroke-linejoin="round" stroke-miterlimit="1.414">
    <path d="M8.5 7A8.5 8.5 0 108.5 24 8.5 8.5 0 108.5 7zM22 8A4 7.5 0 1022 23 4 7.5 0 1022 8zM28.5 9A1.5 6.5 0 1028.5 22 1.5 6.5 0 1028.5 9z"/>
  </symbol>

  <symbol id="search" fill-rule="evenodd" clip-rule="evenodd" stroke-linejoin="round" stroke-miterlimit="1.414">
    <path d="M26.804 29.01c-2.832 2.34-6.465 3.746-10.426 3.746C7.333 32.756 0 25.424 0 16.378 0 7.333 7.333 0 16.378 0c9.046 0 16.378 7.333 16.378 16.378 0 3.96-1.406 7.594-3.746 10.426l10.534 10.534c.607.607.61 1.59-.004 2.202-.61.61-1.597.61-2.202.004L26.804 29.01zm-10.426.627c7.323 0 13.26-5.936 13.26-13.26 0-7.32-5.937-13.257-13.26-13.257C9.056 3.12 3.12 9.056 3.12 16.378c0 7.323 5.936 13.26 13.258 13.26z" fill-rule="evenodd" />
  </symbol>

  <symbol id="menuicon">
    <path d="M18,1.484c0,0.82-0.665,1.484-1.484,1.484H1.484C0.665,2.969,0,2.304,0,1.484l0,0C0,0.665,0.665,0,1.484,0 h15.032C17.335,0,18,0.665,18,1.484L18,1.484z M18,7.516C18,8.335,17.335,9,16.516,9H1.484C0.665,9,0,8.335,0,7.516l0,0 c0-0.82,0.665-1.484,1.484-1.484h15.032C17.335,6.031,18,6.696,18,7.516L18,7.516z M18,13.516C18,14.335,17.335,15,16.516,15H1.484 C0.665,15,0,14.335,0,13.516l0,0c0-0.82,0.665-1.483,1.484-1.483h15.032C17.335,12.031,18,12.695,18,13.516L18,13.516z"/>
  </symbol>

  <symbol id="pyramid">
    <polygon points="191.491,118.328 257.336,87.897 191.49,0 125.645,87.896"/>
		<polygon points="322.867,185.372 270.236,115.116 191.491,151.509 112.745,115.116 60.115,185.372 191.491,251.631"/>
		<polygon points="336.252,213.24 191.491,286.249 46.73,213.24 1.491,273.629 191.49,382.982 381.491,273.629"/>
  </symbol>

</svg>