<?xml version="1.0" standalone="no"?>
<!DOCTYPE svg PUBLIC "-//W3C//DTD SVG 20010904//EN"
 "http://www.w3.org/TR/2001/REC-SVG-20010904/DTD/svg10.dtd">
<svg version="1.0" xmlns="http://www.w3.org/2000/svg"
 width="460.000000pt" height="460.000000pt" viewBox="0 0 460.000000 460.000000"
 preserveAspectRatio="xMidYMid meet">
<metadata>
Created by potrace 1.14, written by Peter Selinger 2001-2017
</metadata>
<g transform="translate(0.000000,460.000000) scale(0.100000,-0.100000)"
fill="#000000" stroke="none">
<path d="M2165 4550 c-44 -10 -100 -19 -125 -20 -56 -1 -119 -28 -163 -72 -19
-18 -62 -57 -96 -86 -74 -65 -93 -99 -120 -223 -22 -102 -21 -127 10 -418 12
-112 15 -125 30 -116 5 3 16 -13 26 -36 9 -24 19 -37 21 -31 9 29 23 4 59
-104 26 -82 42 -118 55 -122 9 -2 22 -21 29 -41 6 -20 29 -58 49 -86 21 -27
46 -69 55 -93 l18 -43 -89 -90 c-49 -50 -112 -108 -141 -130 -28 -21 -72 -65
-98 -98 -39 -50 -192 -181 -210 -181 -14 0 -74 -64 -68 -72 3 -6 -1 -14 -8
-19 -7 -4 -10 -12 -5 -16 5 -4 11 -2 13 5 9 23 22 12 19 -15 -6 -46 -8 -49
-16 -23 l-7 25 -10 -25 c-7 -17 -7 -27 0 -32 8 -5 2 -27 -17 -66 -16 -33 -39
-98 -52 -144 l-24 -83 5 70 c4 39 10 74 16 79 5 6 9 22 9 37 0 25 22 132 36
176 3 10 -13 -2 -35 -27 -45 -49 -48 -59 -55 -204 -5 -92 -10 -116 -20 -105
-3 3 -7 28 -9 57 -6 72 -14 75 -16 5 -2 -101 -22 -256 -37 -284 -8 -16 -14
-41 -14 -56 0 -15 -7 -41 -15 -57 -8 -15 -15 -37 -15 -47 0 -11 -4 -19 -9 -19
-8 0 -21 -47 -26 -100 -2 -14 -10 -47 -20 -75 -9 -27 -19 -70 -22 -95 -3 -25
-9 -47 -13 -50 -5 -3 -12 -19 -16 -35 -4 -17 -10 -34 -14 -40 -5 -5 -10 -23
-12 -40 -2 -19 -10 -31 -23 -35 -11 -3 -21 -14 -22 -25 -10 -85 -35 -199 -51
-236 -10 -24 -24 -55 -30 -69 -6 -14 -11 -19 -11 -12 -3 41 -31 -14 -35 -68
-2 -26 -17 -62 -46 -107 -28 -44 -29 -44 -41 -22 -11 21 -13 21 -24 6 -6 -9
-15 -14 -18 -10 -4 3 -7 -1 -7 -10 0 -9 -4 -17 -9 -17 -5 0 -12 -16 -16 -36
-6 -32 -35 -79 -35 -57 0 4 -5 1 -10 -7 -8 -12 -10 -12 -10 5 0 26 22 89 38
108 8 9 9 18 4 21 -6 3 -2 22 8 43 10 21 21 58 24 83 l6 45 -23 -55 c-13 -30
-37 -84 -54 -120 -49 -107 -74 -174 -79 -207 -1 -13 -5 -31 -8 -40 -3 -10 -1
-25 5 -33 8 -12 9 -11 5 5 -8 28 9 53 18 28 7 -17 8 -17 22 1 10 14 14 16 14
5 0 -8 3 -24 6 -36 5 -18 1 -25 -18 -32 -17 -6 -29 -24 -41 -58 -9 -26 -16
-40 -16 -31 -1 9 4 29 11 43 8 19 9 28 0 37 -8 8 -10 5 -6 -13 5 -22 4 -23 -9
-6 -14 17 -15 17 -20 -2 -3 -14 -1 -18 9 -14 17 6 17 1 2 -32 -11 -24 -13 -25
-19 -8 -6 13 -8 10 -8 -13 -1 -21 -7 -33 -18 -36 -12 -3 -26 -30 -41 -79 -12
-41 -33 -97 -47 -124 -13 -28 -25 -53 -25 -57 0 -5 193 -8 429 -8 477 0 441
-6 441 70 0 57 36 199 56 222 10 10 23 17 30 14 6 -2 17 1 24 7 10 9 11 9 6 0
-5 -8 -1 -13 11 -14 14 0 15 -2 3 -7 -8 -4 -16 -15 -16 -24 -1 -10 -5 -29 -8
-43 -5 -21 -3 -25 15 -25 17 0 20 -4 15 -24 -4 -15 -1 -26 6 -28 8 -3 4 -10
-10 -17 -21 -11 -24 -10 -29 8 -6 23 -29 27 -53 10 -11 -8 -12 -12 -2 -16 6
-2 10 -8 7 -13 -6 -9 26 -22 60 -25 13 -1 20 -9 20 -22 0 -12 3 -25 8 -29 4
-4 7 -17 8 -28 0 -19 1 -18 11 4 10 25 10 25 18 4 7 -17 17 -22 44 -22 44 0
65 21 48 49 -7 11 -9 25 -5 32 4 7 8 18 8 24 0 18 20 16 20 -2 0 -22 21 -39
30 -25 5 8 12 6 26 -6 18 -17 27 -40 11 -30 -4 2 -14 1 -22 -5 -13 -7 -12 -9
2 -9 9 0 19 -8 21 -17 4 -15 6 -15 12 4 4 13 11 23 16 23 5 0 9 9 9 20 0 11 5
20 10 20 6 0 10 -10 10 -21 0 -17 5 -20 21 -16 29 8 49 -2 49 -24 0 -18 13
-19 325 -19 l325 0 0 24 c0 13 20 50 44 82 83 110 125 130 127 62 l2 -33 7 35
c7 29 8 25 5 -20 -1 -30 -5 -62 -7 -70 -3 -8 -10 -30 -16 -48 -9 -29 -9 -33 6
-30 9 2 22 14 29 28 l13 25 0 -27 0 -27 387 -1 c329 0 385 2 373 13 -8 8 -61
56 -117 106 -86 77 -103 97 -103 121 0 24 -8 34 -46 56 -50 29 -94 90 -94 129
0 13 9 39 20 57 26 43 25 52 -6 73 -27 18 -44 23 -80 24 -19 1 -20 7 -21 98 0
88 2 101 23 126 20 23 23 35 17 72 -5 42 -4 47 44 99 34 37 54 69 63 103 20
75 82 160 227 310 34 35 57 31 50 -9 -4 -22 2 -54 18 -93 29 -77 77 -272 76
-308 -1 -16 2 -33 5 -39 4 -6 8 -35 11 -66 2 -31 9 -62 15 -69 5 -7 7 -24 4
-37 -9 -37 32 -542 50 -610 9 -33 22 -72 30 -88 8 -15 14 -35 14 -45 0 -18 13
-19 218 -20 l217 -2 -37 20 c-29 15 -243 69 -273 69 -4 0 -3 5 0 10 3 6 -1 10
-10 10 -9 0 -14 -4 -11 -9 3 -5 -14 -16 -38 -24 l-44 -15 5 41 c10 85 24 119
67 161 44 45 102 79 117 70 5 -3 12 2 15 10 9 23 80 39 137 32 56 -8 179 -54
242 -90 58 -35 82 -71 101 -153 9 -37 23 -83 32 -100 l17 -33 102 0 c114 0
104 -8 105 90 1 51 -14 191 -27 267 -4 21 -26 55 -60 91 -34 37 -63 82 -80
123 -15 37 -39 74 -55 87 -38 30 -196 69 -325 80 -100 8 -100 8 -178 -25 l-77
-34 -24 28 c-15 17 -27 47 -30 76 -4 30 -11 47 -18 45 -17 -6 -58 -90 -53
-107 3 -7 1 -19 -5 -26 -8 -9 -5 -14 11 -18 29 -8 19 -31 -14 -34 -24 -2 -27
2 -26 30 1 38 -9 115 -16 127 -10 16 -34 166 -37 227 -1 35 -6 63 -10 63 -13
0 -9 68 4 72 8 3 6 11 -4 29 -9 13 -19 35 -23 49 -4 14 -16 37 -26 52 -11 15
-19 43 -19 67 0 31 -5 43 -17 48 -10 4 -22 13 -27 21 -7 12 -10 12 -17 1 -6
-10 -9 -3 -10 21 -1 29 -2 31 -7 12 -4 -13 -10 -23 -14 -23 -5 1 -12 1 -17 1
-13 0 -35 65 -71 205 -77 301 -108 390 -157 447 -11 12 -12 21 -4 37 15 26 14
28 -9 34 -11 3 -24 16 -29 29 l-9 23 -7 -28 c-4 -16 0 -65 10 -119 15 -76 17
-119 11 -270 -4 -98 -11 -189 -16 -201 -15 -36 -30 -275 -23 -373 5 -74 3 -97
-12 -127 -9 -20 -21 -35 -25 -32 -4 3 -10 -2 -14 -10 -9 -23 -85 -19 -173 11
-91 30 -123 27 -215 -16 -48 -23 -77 -30 -124 -30 -67 0 -124 15 -124 33 0 9
-2 9 -8 1 -16 -25 -53 -32 -173 -31 l-127 0 -16 34 c-9 18 -16 38 -16 44 0 6
-14 28 -32 50 -23 28 -29 44 -23 53 6 7 37 53 70 102 32 49 64 94 70 101 7 6
18 25 25 42 7 17 16 31 20 31 10 0 20 26 27 65 6 37 10 45 49 88 18 19 35 48
39 65 3 18 11 34 15 37 21 13 94 210 85 226 -3 4 2 9 10 13 8 3 15 13 15 23 0
10 6 30 14 45 8 15 17 42 21 60 16 81 36 138 46 132 8 -4 9 1 4 16 -4 14 -3
20 3 16 5 -3 13 6 17 22 7 31 79 178 131 267 19 33 37 67 41 75 3 8 18 29 32
46 14 17 39 47 55 67 15 20 34 37 42 37 8 0 11 6 7 15 -3 9 -1 15 4 13 6 -2
36 21 68 49 68 62 217 145 260 146 17 0 44 -3 60 -7 19 -4 7 5 -30 24 -79 41
-147 113 -131 139 3 5 -4 17 -15 27 -12 10 -27 31 -35 46 -13 24 -21 28 -58
28 -43 0 -99 30 -84 45 4 4 93 7 197 8 176 0 189 2 160 15 -22 11 -27 17 -17
23 10 7 6 15 -17 34 -25 20 -27 24 -11 25 11 0 28 7 38 16 14 13 21 14 32 5 8
-7 20 -10 26 -6 14 8 -46 65 -69 65 -132 0 -270 13 -306 29 -96 43 -115 83
-91 203 25 127 26 183 6 261 -10 40 -21 91 -25 114 -10 61 -62 202 -92 248
-33 50 -70 88 -75 78 -3 -4 -3 -3 -2 4 5 19 -74 83 -135 110 -74 34 -154 38
-256 13z m346 -147 c13 -17 13 -17 -6 -3 -11 8 -22 16 -24 17 -2 2 0 3 6 3 6
0 17 -8 24 -17z m-78 -28 c56 -23 89 -65 51 -65 -10 0 -14 -6 -10 -15 8 -22
-5 -18 -57 16 -50 33 -65 49 -46 49 8 0 8 4 -1 15 -10 12 -9 15 8 15 11 0 35
-7 55 -15z m-70 -62 c18 -9 37 -16 42 -14 6 1 7 -1 3 -5 -4 -4 6 -22 22 -41
48 -55 35 -57 -37 -7 -87 61 -86 60 -79 73 9 14 11 14 49 -6z m8 -65 c53 -41
64 -66 17 -38 -40 23 -87 70 -71 70 7 0 31 -15 54 -32z m-1 -58 c15 -27 13
-32 -10 -25 -22 7 -26 -5 -8 -23 26 -26 1 -18 -32 10 -29 25 -31 29 -12 25 24
-6 28 3 11 20 -6 6 -8 16 -5 22 9 14 42 -3 56 -29z m-80 -56 c0 -8 6 -14 14
-14 17 0 38 -24 29 -33 -14 -15 -88 47 -77 64 7 12 34 -1 34 -17z m-110 -174
c8 -5 47 -42 87 -82 70 -69 72 -73 55 -91 -9 -11 -35 -27 -58 -37 -39 -17 -74
-44 -74 -59 0 -3 20 -13 45 -20 33 -10 52 -10 75 -2 17 5 38 7 47 4 30 -12 72
-59 89 -99 9 -21 22 -46 29 -54 7 -8 16 -49 20 -92 6 -70 4 -80 -19 -124 -14
-27 -26 -54 -26 -60 0 -6 -24 -37 -54 -68 -46 -48 -60 -56 -91 -56 -50 0 -95
25 -95 53 0 32 10 43 56 58 58 20 49 35 -20 31 -45 -3 -57 -1 -54 10 6 16 54
33 128 46 54 10 53 10 -38 10 -116 -1 -129 9 -79 56 20 19 37 36 37 38 0 2
-33 3 -72 3 l-73 0 0 115 c0 63 4 121 9 128 9 13 -9 42 -26 42 -5 0 -16 7 -24
15 -9 8 -33 15 -55 15 -45 0 -50 15 -23 69 9 17 16 51 16 74 0 52 5 63 38 76
32 13 131 13 150 1z m-253 -477 c21 -38 40 -72 42 -78 2 -5 19 -25 37 -43 19
-19 31 -39 28 -43 -3 -5 0 -9 5 -9 6 0 11 -8 11 -18 0 -10 3 -22 7 -26 12 -12
13 -46 1 -46 -6 0 -8 3 -5 7 4 3 -7 16 -24 29 -39 28 -78 85 -77 110 2 22 -39
121 -59 145 -12 15 -18 39 -9 39 2 0 22 -30 43 -67z m823 -254 c0 -6 -4 -7
-10 -4 -5 3 -10 11 -10 16 0 6 5 7 10 4 6 -3 10 -11 10 -16z m-651 -61 l35
-31 -23 -18 c-44 -36 -71 -21 -71 40 0 50 12 52 59 9z m151 -144 c0 -18 -4
-36 -10 -39 -6 -3 -10 4 -10 18 0 25 -32 62 -43 50 -4 -3 -7 1 -7 9 0 14 5 15
35 5 31 -9 35 -14 35 -43z m-350 -368 c0 -3 -4 -8 -10 -11 -5 -3 -10 -1 -10 4
0 6 5 11 10 11 6 0 10 -2 10 -4z m-20 -35 c0 -6 -4 -13 -10 -16 -5 -3 -10 1
-10 9 0 9 5 16 10 16 6 0 10 -4 10 -9z m30 -1 c0 -5 -4 -10 -10 -10 -5 0 -10
5 -10 10 0 6 5 10 10 10 6 0 10 -4 10 -10z m-20 -24 c0 -2 -8 -10 -17 -17 -16
-13 -17 -12 -4 4 13 16 21 21 21 13z m-449 -109 c-10 -9 -11 -8 -5 6 3 10 9
15 12 12 3 -3 0 -11 -7 -18z m-174 -589 c-3 -8 -6 -5 -6 6 -1 11 2 17 5 13 3
-3 4 -12 1 -19z m-15 -70 c-7 -7 -12 -8 -12 -2 0 14 12 26 19 19 2 -3 -1 -11
-7 -17z m-12 -227 c0 -32 7 -78 15 -102 40 -114 48 -175 36 -306 -6 -69 -8
-129 -5 -135 3 -5 -3 -16 -15 -24 -30 -22 -52 -69 -53 -115 0 -40 -13 -53 -22
-21 -8 30 -5 503 4 577 5 39 12 96 15 128 8 74 25 74 25 -2z m2107 -253 c-3
-8 -6 -5 -6 6 -1 11 2 17 5 13 3 -3 4 -12 1 -19z m-1462 -208 c8 -26 -11 -61
-31 -53 -9 3 -13 12 -8 22 3 9 9 24 11 34 7 23 20 22 28 -3z m38 -35 c-3 -13
-11 -30 -19 -36 -8 -6 -14 -17 -14 -24 0 -7 -7 -18 -15 -25 -20 -17 -19 -10 9
55 26 57 47 74 39 30z m67 -80 c0 -8 -4 -15 -10 -15 -5 0 -10 7 -10 15 0 8 5
15 10 15 6 0 10 -7 10 -15z m-10 -34 c0 -6 -4 -13 -10 -16 -5 -3 -10 1 -10 9
0 9 5 16 10 16 6 0 10 -4 10 -9z m47 -34 c2 -24 0 -26 -18 -17 -21 12 -21 12
-13 35 9 24 28 12 31 -18z m-289 -55 c2 -7 -3 -12 -12 -12 -9 0 -16 7 -16 16
0 17 22 14 28 -4z m352 -7 c0 -14 -4 -25 -10 -25 -5 0 -9 11 -8 25 1 14 6 25
10 25 4 0 8 -11 8 -25z m425 -25 c-3 -5 -12 -7 -20 -3 -21 7 -19 13 6 13 11 0
18 -4 14 -10z m-315 -39 c0 -16 -34 -61 -46 -61 -8 0 7 63 18 77 13 16 28 7
28 -16z m50 4 c0 -8 -4 -15 -10 -15 -5 0 -10 7 -10 15 0 8 5 15 10 15 6 0 10
-7 10 -15z m47 0 c8 -22 -6 -33 -17 -15 -13 20 -12 30 0 30 6 0 13 -7 17 -15z
m153 -17 c0 -5 -4 -8 -10 -8 -5 0 -10 10 -10 23 0 18 2 19 10 7 5 -8 10 -18
10 -22z m73 18 c3 -8 3 -24 0 -35 -3 -12 0 -35 7 -51 7 -17 9 -42 5 -57 -6
-26 -7 -26 -17 -8 -14 23 -21 165 -9 165 5 0 11 -6 14 -14z m-153 -11 c0 -8
-4 -15 -10 -15 -5 0 -10 7 -10 15 0 8 5 15 10 15 6 0 10 -7 10 -15z m324 0 c3
-8 12 -15 21 -15 8 0 15 -4 15 -9 0 -15 -30 -21 -51 -11 -21 12 -21 12 -13 34
8 20 20 20 28 1z m-73 -5 c5 0 9 -4 9 -10 0 -14 -43 -6 -48 10 -3 9 1 11 12 7
10 -4 22 -7 27 -7z m-358 -63 c4 -10 -2 -13 -19 -9 -17 3 -24 0 -24 -12 0 -9
-7 -16 -15 -16 -8 0 -15 3 -15 8 1 31 63 56 73 29z m127 -49 c0 -4 -4 -8 -10
-8 -5 0 -10 4 -10 9 0 5 -3 18 -6 28 -5 16 -4 16 10 -1 9 -11 16 -23 16 -28z
m310 38 c0 -3 -4 -8 -10 -11 -5 -3 -10 -1 -10 4 0 6 5 11 10 11 6 0 10 -2 10
-4z m-450 -16 c0 -5 -2 -10 -4 -10 -3 0 -8 5 -11 10 -3 6 -1 10 4 10 6 0 11
-4 11 -10z m50 0 c0 -5 -4 -10 -10 -10 -5 0 -10 5 -10 10 0 6 5 10 10 10 6 0
10 -4 10 -10z m50 -35 c0 -8 -13 -28 -30 -46 l-29 -33 11 40 c6 21 16 45 21
51 11 15 27 8 27 -12z m-1623 -47 c-3 -7 -5 -2 -5 12 0 14 2 19 5 13 2 -7 2
-19 0 -25z m3418 7 c86 -22 105 -30 137 -62 39 -40 45 -58 27 -83 -9 -13 -10
-13 -7 0 4 20 -34 73 -68 95 -15 10 -77 30 -138 45 -61 16 -97 29 -81 29 17 0
75 -10 130 -24z m-1868 -1 c-3 -3 -12 -4 -19 -1 -8 3 -5 6 6 6 11 1 17 -2 13
-5z m569 -23 c0 -11 -4 -17 -9 -14 -4 3 -15 -3 -22 -13 -17 -22 -19 -15 -5 20
11 30 36 35 36 7z m1177 12 c-7 -2 -21 -2 -30 0 -10 3 -4 5 12 5 17 0 24 -2
18 -5z m-1653 -13 c0 -5 -4 -10 -10 -10 -5 0 -10 5 -10 10 0 6 5 10 10 10 6 0
10 -4 10 -10z m1707 4 c-3 -3 -12 -4 -19 -1 -8 3 -5 6 6 6 11 1 17 -2 13 -5z
m-53 -13 c3 -5 37 -17 76 -26 48 -12 70 -22 70 -32 0 -9 6 -13 14 -10 9 4 17
-2 21 -14 4 -12 13 -18 20 -15 16 6 25 -15 25 -57 0 -43 -10 -77 -22 -77 -6 0
-27 10 -47 23 l-36 22 31 3 c31 3 43 20 44 60 0 28 -120 65 -146 45 -5 -5 1 1
14 13 l24 21 -33 7 c-18 3 -37 2 -43 -4 -5 -5 -14 -6 -20 -1 -6 4 -23 11 -38
15 -27 6 -28 5 -28 -31 0 -49 -8 -59 -47 -65 -36 -5 -45 6 -13 15 23 6 45 49
37 71 -4 9 -16 16 -28 16 -55 0 29 26 93 29 15 0 29 -3 32 -8z m147 -12 c27
-12 48 -23 46 -25 -3 -3 -118 35 -126 42 -14 12 38 1 80 -17z m-1361 -85 c-10
-11 -10 -14 0 -14 9 0 8 -5 -3 -18 -10 -10 -14 -22 -10 -26 4 -4 0 -4 -8 -1
-13 5 -15 0 -11 -25 2 -17 0 -30 -7 -30 -6 0 -8 -7 -5 -15 4 -10 0 -15 -15
-15 -12 0 -20 3 -19 8 1 4 -6 20 -17 36 -19 29 -19 29 0 40 32 18 95 85 96
104 1 10 3 8 6 -6 3 -13 -1 -30 -7 -38z m767 34 c-3 -8 -6 -5 -6 6 -1 11 2 17
5 13 3 -3 4 -12 1 -19z m-1106 -15 c17 -20 18 -23 3 -10 -11 9 -26 17 -32 17
-7 0 -12 5 -12 10 0 18 16 11 41 -17z m1809 -27 c19 -55 4 -186 -21 -186 -6 0
-27 11 -47 25 -22 15 -30 25 -20 25 9 0 20 -4 23 -10 11 -18 44 -11 56 12 18
34 5 139 -20 159 -27 22 -27 33 -1 17 11 -7 24 -26 30 -42z m-3640 25 c0 -6
-4 -13 -10 -16 -5 -3 -10 1 -10 9 0 9 5 16 10 16 6 0 10 -4 10 -9z m2095 -22
c-4 -6 -13 -8 -21 -5 -8 3 -14 1 -14 -4 0 -6 -5 -10 -11 -10 -5 0 -8 4 -5 9 4
5 0 12 -6 14 -7 3 4 6 25 6 25 1 36 -3 32 -10z m-175 -9 c0 -5 6 -10 14 -10 8
0 24 -12 35 -27 16 -22 20 -24 21 -10 0 9 5 17 10 17 15 0 12 -20 -9 -65 -12
-24 -20 -33 -20 -22 -1 11 -7 17 -13 14 -7 -2 -21 0 -30 5 -13 6 -18 5 -18 -6
0 -8 8 -17 18 -19 13 -4 12 -5 -4 -6 -28 -1 -41 29 -19 45 14 11 14 12 -1 18
-9 3 -21 3 -27 -1 -7 -4 -8 0 -4 11 4 10 7 29 7 42 0 17 6 24 20 24 11 0 20
-4 20 -10z m310 2 c0 -13 -28 -47 -34 -42 -10 10 6 50 20 50 8 0 14 -4 14 -8z
m1164 -19 c-7 -31 -12 -38 -18 -32 -7 7 6 59 15 59 5 0 6 -12 3 -27z m117 7
c10 -6 19 -16 19 -22 0 -9 -3 -9 -12 0 -42 42 -52 -26 -10 -72 25 -29 25 -29
2 -11 -42 33 -50 47 -43 74 10 45 13 47 44 31z m-1190 -23 c-13 -13 -26 -3
-16 12 3 6 11 8 17 5 6 -4 6 -10 -1 -17z m1096 -14 c-3 -10 -5 -4 -5 12 0 17
2 24 5 18 2 -7 2 -21 0 -30z m-2708 23 c-12 -11 -79 -34 -79 -26 0 4 12 13 28
18 27 11 59 15 51 8z m2631 -26 c0 -24 -6 -25 -25 -6 -15 15 -10 26 12 26 7 0
13 -9 13 -20z m-1671 -16 c17 -14 31 -30 31 -35 0 -5 -17 -20 -37 -33 -21 -13
-50 -36 -65 -50 -15 -14 -31 -26 -36 -26 -5 0 -14 -10 -21 -22 -7 -13 -31 -36
-54 -53 -23 -16 -46 -33 -52 -37 -26 -21 -103 -74 -122 -85 -17 -9 -24 -10
-29 -1 -5 7 -11 3 -17 -13 -8 -19 -11 -21 -14 -7 -3 10 -19 19 -46 23 -25 5
-52 18 -70 36 -16 16 -39 29 -53 29 -19 0 -28 8 -36 31 -9 27 -14 30 -42 26
-17 -2 -39 -8 -50 -12 -16 -7 -17 -5 -11 15 7 22 6 22 -39 16 -38 -6 -47 -4
-53 10 -4 10 0 20 11 26 9 5 13 14 10 20 -8 13 12 2 38 -20 11 -9 27 -12 42
-8 14 3 28 2 31 -4 12 -19 43 -10 63 17 17 23 22 25 36 14 10 -9 16 -10 16 -2
0 6 11 13 24 17 15 3 26 14 28 27 2 17 10 22 32 22 16 1 31 6 33 11 2 7 -15
10 -49 7 -52 -3 -53 -3 -23 11 17 8 93 22 170 31 77 9 174 22 215 30 104 18
105 18 139 -11z m1188 -26 c-3 -8 -6 -5 -6 6 -1 11 2 17 5 13 3 -3 4 -12 1
-19z m436 15 c-7 -2 -19 -2 -25 0 -7 3 -2 5 12 5 14 0 19 -2 13 -5z m112 -13
c4 -6 11 -8 16 -5 13 9 149 -68 183 -104 16 -17 32 -28 36 -26 12 7 19 -20 10
-35 -5 -9 -12 -4 -25 17 -21 35 -94 87 -158 111 -25 10 -49 21 -53 25 -4 4
-16 7 -26 7 -10 0 -18 5 -18 10 0 13 27 13 35 0z m378 -34 c26 -24 47 -49 47
-56 0 -13 -96 66 -104 86 -9 24 7 15 57 -30z m-1601 -68 c-5 -21 -23 -23 -40
-6 -9 9 -12 8 -12 -5 0 -9 5 -17 11 -17 11 0 39 -24 39 -34 0 -3 -7 -6 -15 -6
-8 0 -15 -7 -15 -15 0 -8 -9 -15 -20 -15 -13 0 -18 5 -14 15 4 9 -3 16 -19 21
-23 5 -25 9 -16 31 5 13 7 28 4 33 -3 4 5 6 17 3 19 -4 20 -3 8 6 -12 9 -9 10
13 5 23 -5 29 -3 34 15 5 20 6 20 18 5 7 -10 10 -26 7 -36z m-1317 22 c-11 -5
-31 -8 -45 -8 l-25 0 25 8 c14 4 34 8 45 8 l20 1 -20 -9z m-100 -20 c3 -6 -4
-10 -17 -10 -18 0 -20 2 -8 10 19 12 18 12 25 0z m995 -10 c0 -5 -5 -10 -11
-10 -5 0 -7 5 -4 10 3 6 8 10 11 10 2 0 4 -4 4 -10z m1976 -6 c-4 -11 -2 -15
8 -11 8 3 26 -4 40 -16 25 -22 37 -45 16 -32 -5 3 -10 2 -10 -3 0 -6 7 -12 15
-16 8 -3 15 -11 15 -18 0 -9 -3 -8 -10 2 -5 8 -10 12 -10 7 0 -4 -14 7 -30 25
-30 32 -30 33 -46 13 -15 -20 -15 -41 1 -79 6 -14 5 -18 -6 -14 -29 9 -17 158
12 158 6 0 8 -7 5 -16z m-2916 -35 c0 -4 -7 -9 -15 -13 -9 -3 -15 0 -15 8 0 7
7 13 15 13 8 0 15 -4 15 -8z m1010 1 c0 -5 -2 -10 -4 -10 -3 0 -8 5 -11 10 -3
6 -1 10 4 10 6 0 11 -4 11 -10z m230 -4 c0 -3 -4 -8 -10 -11 -5 -3 -10 -1 -10
4 0 6 5 11 10 11 6 0 10 -2 10 -4z m-7 -46 c-10 -11 -18 -20 -18 -20 0 0 -1 9
-1 20 0 12 7 20 18 20 17 0 17 -1 1 -20z m58 -20 c23 -13 26 -40 4 -40 -8 0
-15 -9 -15 -19 0 -10 -7 -21 -15 -25 -11 -4 -14 1 -11 16 1 12 8 24 14 26 21
7 13 40 -10 45 -17 3 -18 5 -5 6 10 0 27 -4 38 -9z m-81 -14 c0 -11 -19 -15
-25 -6 -3 5 1 10 9 10 9 0 16 -2 16 -4z m154 -27 c-3 -5 -10 -7 -15 -3 -5 3
-7 10 -3 15 3 5 10 7 15 3 5 -3 7 -10 3 -15z m1611 -75 c-18 -45 -19 -44 1
-44 9 0 14 -5 12 -12 -7 -19 -23 -20 -45 -1 -12 10 -31 25 -42 33 -31 21 -26
30 10 17 27 -11 32 -10 42 8 7 11 12 27 13 35 4 64 5 67 15 33 7 -24 5 -42 -6
-69z m-41 42 c-8 -20 -15 -20 -40 -1 -18 15 -18 15 9 9 18 -4 27 -2 27 7 0 7
2 10 5 7 3 -3 3 -13 -1 -22z m-1579 -6 c3 -5 1 -10 -4 -10 -6 0 -11 5 -11 10
0 6 2 10 4 10 3 0 8 -4 11 -10z m-1228 -6 c-3 -3 -12 -4 -19 -1 -8 3 -5 6 6 6
11 1 17 -2 13 -5z m-117 -24 c0 -5 -4 -10 -10 -10 -5 0 -10 5 -10 10 0 6 5 10
10 10 6 0 10 -4 10 -10z"/>
<path d="M3238 3313 c7 -3 16 -2 19 1 4 3 -2 6 -13 5 -11 0 -14 -3 -6 -6z"/>
<path d="M1231 2274 c0 -11 3 -14 6 -6 3 7 2 16 -1 19 -3 4 -6 -2 -5 -13z"/>
<path d="M2180 1499 c0 -5 5 -7 10 -4 6 3 10 8 10 11 0 2 -4 4 -10 4 -5 0 -10
-5 -10 -11z"/>
<path d="M3311 1384 c0 -11 3 -14 6 -6 3 7 2 16 -1 19 -3 4 -6 -2 -5 -13z"/>
<path d="M2077 1330 c-3 -11 -1 -23 4 -26 5 -3 9 6 9 20 0 31 -6 34 -13 6z"/>
<path d="M2020 1208 c0 -36 4 -35 14 5 4 16 2 27 -4 27 -5 0 -10 -14 -10 -32z"/>
<path d="M1980 1153 c0 -13 5 -23 10 -23 13 0 13 11 0 30 -8 12 -10 11 -10 -7z"/>
<path d="M726 924 c-4 -9 -4 -19 -1 -22 2 -3 7 3 11 12 4 9 4 19 1 22 -2 3 -7
-3 -11 -12z"/>
<path d="M3720 313 c-8 -3 -18 -11 -22 -17 -11 -16 -10 -66 2 -66 6 0 10 7 10
15 0 9 7 18 15 21 10 4 13 13 10 24 -4 12 0 20 12 23 12 3 13 5 3 5 -8 0 -22
-2 -30 -5z"/>
<path d="M3659 259 c0 -8 -2 -26 -3 -40 -1 -17 3 -25 10 -22 6 2 11 18 9 34
-2 31 -14 52 -16 28z"/>
<path d="M1280 179 c0 -5 5 -7 10 -4 6 3 10 8 10 11 0 2 -4 4 -10 4 -5 0 -10
-5 -10 -11z"/>
<path d="M3662 160 c0 -14 2 -19 5 -12 2 6 2 18 0 25 -3 6 -5 1 -5 -13z"/>
</g>
</svg>
